<svg xmlns="http://www.w3.org/2000/svg" xmlns:svg="http://www.w3.org/2000/svg" id="svg4213" width="16" height="16" version="1.1" viewBox="0 0 16 16"><defs id="defs4215"><marker id="Arrow2Mend" orient="auto" refX="0" refY="0" style="overflow:visible"><path id="path13972" d="M 8.7185878,4.0337352 -2.2072895,0.01601326 8.7185884,-4.0017078 c -1.7454984,2.3720609 -1.7354408,5.6174519 -6e-7,8.035443 z" transform="scale(-0.6,-0.6)" style="fill:#bebebe;fill-opacity:1;fill-rule:evenodd;stroke:#bebebe;stroke-width:.625;stroke-linejoin:round;stroke-opacity:1"/></marker></defs><metadata id="metadata4218"/><g id="layer1" transform="translate(0,-1036.3622)"><g style="display:inline" id="tool-place" transform="matrix(0.32173538,0,0,0.32167334,-47.594055,938.50982)"><g id="g6039" transform="matrix(1.4022891,0,0,1.4025484,-69.478744,-132.49628)"><g id="g10468"><rect id="rect3436" width="31.03" height="31.03" x="157.254" y="313.575" ry=".429" style="opacity:1;fill:none;fill-opacity:1;stroke:none;stroke-width:.969697;stroke-linejoin:miter;stroke-miterlimit:4;stroke-dasharray:none;stroke-opacity:1"/><rect id="rect4400" width="11.082" height="11.082" x="166.12" y="335.739" ry="0" style="opacity:1;fill:#bebebe;fill-opacity:1;stroke:none;stroke-width:.10701809;stroke-miterlimit:4;stroke-dasharray:none;stroke-opacity:1"/><path style="fill:#bebebe;fill-opacity:1;fill-rule:evenodd;stroke:none;stroke-width:1px;stroke-linecap:butt;stroke-linejoin:miter;stroke-opacity:1" id="path18809" d="M 7 1 L 7 6 L 5 6 L 7.5 9 L 10 6 L 8 6 L 8 1 L 7 1 z" transform="matrix(2.216479,0,0,2.2164966,155.03789,311.35771)"/><rect id="rect9820" width="35.464" height="35.464" x="155.038" y="311.358" style="opacity:1;fill:none;fill-opacity:1;stroke:none;stroke-width:.99999994;stroke-linejoin:miter;stroke-miterlimit:4.0999999;stroke-dasharray:none;stroke-dashoffset:.89999974;stroke-opacity:1"/></g><g style="display:inline" id="g9829" transform="matrix(0.99181083,0,0,1.0343661,277.99458,-54.840593)"><rect style="display:inline;opacity:1;fill:none;fill-opacity:1;stroke:none;stroke-width:.2;stroke-linejoin:miter;stroke-miterlimit:4;stroke-dasharray:none;stroke-dashoffset:2.26799989;stroke-opacity:1" id="rect4346" width="44.8" height="44.8" x="231.571" y="349.721" rx=".178" transform="matrix(0.69836874,0,0,0.66964224,73.228738,122.99087)"/><rect id="rect4312" width="20" height="2.5" x="251.471" y="374.621" rx=".071" transform="matrix(0.89390837,0,0,0.85714327,24.444204,52.213324)" style="display:inline;opacity:1;fill:#bebebe;fill-opacity:1;stroke:none;stroke-width:.2;stroke-linejoin:miter;stroke-miterlimit:4;stroke-dasharray:none;stroke-dashoffset:2.26799989;stroke-opacity:1"/><rect style="display:inline;opacity:1;fill:#bebebe;fill-opacity:1;stroke:none;stroke-width:.2;stroke-linejoin:miter;stroke-miterlimit:4;stroke-dasharray:none;stroke-dashoffset:2.26799989;stroke-opacity:1" id="rect4316" width="20" height="2.5" x="251.471" y="382.121" rx=".071" transform="matrix(0.89390837,0,0,0.85714327,24.444204,52.213324)"/><rect id="rect4318" width="20" height="2.5" x="369.621" y="-258.971" rx=".071" transform="matrix(0,0.85714327,-0.89390837,0,24.444204,52.213324)" style="display:inline;opacity:1;fill:#bebebe;fill-opacity:1;stroke:none;stroke-width:.2;stroke-linejoin:miter;stroke-miterlimit:4;stroke-dasharray:none;stroke-dashoffset:2.26799989;stroke-opacity:1"/><rect style="display:inline;opacity:1;fill:#bebebe;fill-opacity:1;stroke:none;stroke-width:.2;stroke-linejoin:miter;stroke-miterlimit:4;stroke-dasharray:none;stroke-dashoffset:2.26799989;stroke-opacity:1" id="rect4320" width="20" height="2.5" x="369.621" y="-266.471" rx=".071" transform="matrix(0,0.85714327,-0.89390837,0,24.444204,52.213324)"/><g id="g18196" transform="matrix(0.68748697,0.65920807,-0.73744045,0.70710678,343.58841,-54.025311)"><path style="opacity:1;fill:#b40000;fill-opacity:1;stroke:none;stroke-width:1;stroke-linejoin:miter;stroke-miterlimit:4;stroke-dasharray:none;stroke-dashoffset:.89999974;stroke-opacity:1" id="path17555" d="m 240.50438,355.61768 c -4.14215,0 -7.50003,3.35786 -7.50003,7.49999 0,4.14213 3.35788,7.49999 7.50003,7.49999 l 4.57215,0 0,-4.5 -4.57215,0 c -1.65686,0 -3.00001,-1.34314 -3.00001,-2.99999 0,-1.65685 1.34315,-3 3.00001,-3 l 4.57215,0 0,-4.49999 z"/><g id="g17557" transform="matrix(1.2,0,0,1.2,-106.67131,-102.92769)" style="fill:#bebebe;fill-opacity:1"><path id="path17559" d="m 293.97129,382.12115 0,3.74999 2.50001,0 0,-3.74999 -2.50001,0 z m 0,8.74998 0,3.75 2.50001,0 0,-3.75 -2.50001,0 z" style="display:inline;opacity:1;fill:#bebebe;fill-opacity:1;stroke:none;stroke-width:1;stroke-linejoin:miter;stroke-miterlimit:4;stroke-dasharray:none;stroke-dashoffset:.89999974;stroke-opacity:1"/></g></g><rect id="rect9822" width="35.756" height="34.286" x="233.593" y="354.032" style="opacity:1;fill:none;fill-opacity:1;stroke:none;stroke-width:.99999994;stroke-linejoin:miter;stroke-miterlimit:4.0999999;stroke-dasharray:none;stroke-dashoffset:.89999974;stroke-opacity:1"/></g><g style="display:inline" id="g9888" transform="matrix(1.000013,0,0,1.0000209,-34.695728,-0.00719494)"><rect id="rect5007" width="31.03" height="31.03" x="236.277" y="313.575" ry=".429" style="opacity:1;fill:none;fill-opacity:1;stroke:none;stroke-width:.969697;stroke-linejoin:miter;stroke-miterlimit:4;stroke-dasharray:none;stroke-opacity:1"/><rect style="opacity:1;fill:#bebebe;fill-opacity:1;stroke:none;stroke-width:.10701809;stroke-miterlimit:4;stroke-dasharray:none;stroke-opacity:1" id="rect5009" width="11.082" height="11.082" x="245.142" y="324.657" ry="0"/><path id="path13177" d="m 245.1424,320.22421 5.54113,-6.64935 5.54112,6.64935 -11.08225,0" style="fill:#bebebe;fill-opacity:1;fill-rule:evenodd;stroke:none;stroke-width:2.21645021px;stroke-linecap:butt;stroke-linejoin:miter;stroke-opacity:1"/><path style="fill:#bebebe;fill-opacity:1;fill-rule:evenodd;stroke:none;stroke-width:2.21645021px;stroke-linecap:butt;stroke-linejoin:miter;stroke-opacity:1" id="path13179" d="m 245.1424,340.17226 5.54113,6.64935 5.54112,-6.64935 -11.08225,0"/><path style="fill:#bebebe;fill-opacity:1;fill-rule:evenodd;stroke:none;stroke-width:2.21645021px;stroke-linecap:butt;stroke-linejoin:miter;stroke-opacity:1" id="path13181" d="m 260.65755,324.65711 6.64935,5.54113 -6.64935,5.54112 0,-11.08225"/><path id="path13183" d="m 240.7095,324.65711 -6.64935,5.54113 6.64935,5.54112 0,-11.08225" style="fill:#bebebe;fill-opacity:1;fill-rule:evenodd;stroke:none;stroke-width:2.21645021px;stroke-linecap:butt;stroke-linejoin:miter;stroke-opacity:1"/><rect id="rect9886" width="35.463" height="35.463" x="234.06" y="311.358" style="opacity:1;fill:none;fill-opacity:1;stroke:none;stroke-width:.99999994;stroke-linejoin:miter;stroke-miterlimit:4.0999999;stroke-dasharray:none;stroke-dashoffset:.89999974;stroke-opacity:1"/></g><rect style="opacity:1;fill:none;fill-opacity:1;stroke:none;stroke-width:2.21648765;stroke-linejoin:miter;stroke-miterlimit:4.0999999;stroke-dasharray:none;stroke-dashoffset:.89999974;stroke-opacity:1" id="rect9933" width="35.464" height="35.464" x="332.356" y="311.358"/><g id="g7845" transform="matrix(2.216479,0,0,2.2164966,376.68579,-2021.1994)"><rect id="rect7827" width="1" height="15" x="13" y="1053.362" rx="0" ry="0" style="display:inline;opacity:1;fill:#bebebe;fill-opacity:1;stroke:none;stroke-width:1;stroke-linejoin:miter;stroke-miterlimit:4;stroke-dasharray:none;stroke-dashoffset:.89999974;stroke-opacity:1"/><rect style="display:inline;opacity:1;fill:#bebebe;fill-opacity:1;stroke:none;stroke-width:1;stroke-linejoin:miter;stroke-miterlimit:4;stroke-dasharray:none;stroke-dashoffset:.89999974;stroke-opacity:1" id="rect7829" width="15" height="1" x="0" y="1054.362" rx="0" ry="0"/><rect id="rect7831" width="15" height="1" x="0" y="1060.362" rx="0" ry="0" style="display:inline;opacity:1;fill:#bebebe;fill-opacity:1;stroke:none;stroke-width:1;stroke-linejoin:miter;stroke-miterlimit:4;stroke-dasharray:none;stroke-dashoffset:.89999974;stroke-opacity:1"/><rect style="display:inline;opacity:1;fill:#bebebe;fill-opacity:1;stroke:none;stroke-width:1;stroke-linejoin:miter;stroke-miterlimit:4;stroke-dasharray:none;stroke-dashoffset:.89999974;stroke-opacity:1" id="rect7833" width="15" height="1" x="0" y="1066.362" rx="0" ry="0"/><rect style="display:inline;opacity:1;fill:#bebebe;fill-opacity:1;stroke:none;stroke-width:1;stroke-linejoin:miter;stroke-miterlimit:4;stroke-dasharray:none;stroke-dashoffset:.89999974;stroke-opacity:1" id="rect7835" width="1" height="15" x="7" y="1053.362" rx="0" ry="0"/><rect id="rect7837" width="1" height="15" x="1" y="1053.362" rx="0" ry="0" style="display:inline;opacity:1;fill:#bebebe;fill-opacity:1;stroke:none;stroke-width:1;stroke-linejoin:miter;stroke-miterlimit:4;stroke-dasharray:none;stroke-dashoffset:.89999974;stroke-opacity:1"/></g><g id="g7871" transform="matrix(2.216479,0,0,2.2164966,332.35621,-2021.1994)"><g id="g7949"><g id="g7859"><rect style="display:inline;opacity:1;fill:#bebebe;fill-opacity:1;stroke:none;stroke-width:1;stroke-linejoin:miter;stroke-miterlimit:4;stroke-dasharray:none;stroke-dashoffset:.89999974;stroke-opacity:1" id="rect7847" width="1" height="15" x="13" y="1053.362" rx="0" ry="0"/><rect id="rect7849" width="15" height="1" x="0" y="1054.362" rx="0" ry="0" style="display:inline;opacity:1;fill:#bebebe;fill-opacity:1;stroke:none;stroke-width:1;stroke-linejoin:miter;stroke-miterlimit:4;stroke-dasharray:none;stroke-dashoffset:.89999974;stroke-opacity:1"/><rect style="display:inline;opacity:1;fill:#bebebe;fill-opacity:1;stroke:none;stroke-width:1;stroke-linejoin:miter;stroke-miterlimit:4;stroke-dasharray:none;stroke-dashoffset:.89999974;stroke-opacity:1" id="rect7851" width="15" height="1" x="0" y="1060.362" rx="0" ry="0"/><rect id="rect7853" width="15" height="1" x="0" y="1066.362" rx="0" ry="0" style="display:inline;opacity:1;fill:#bebebe;fill-opacity:1;stroke:none;stroke-width:1;stroke-linejoin:miter;stroke-miterlimit:4;stroke-dasharray:none;stroke-dashoffset:.89999974;stroke-opacity:1"/><rect id="rect7855" width="1" height="15" x="7" y="1053.362" rx="0" ry="0" style="display:inline;opacity:1;fill:#bebebe;fill-opacity:1;stroke:none;stroke-width:1;stroke-linejoin:miter;stroke-miterlimit:4;stroke-dasharray:none;stroke-dashoffset:.89999974;stroke-opacity:1"/><rect style="display:inline;opacity:1;fill:#bebebe;fill-opacity:1;stroke:none;stroke-width:1;stroke-linejoin:miter;stroke-miterlimit:4;stroke-dasharray:none;stroke-dashoffset:.89999974;stroke-opacity:1" id="rect7857" width="1" height="15" x="1" y="1053.362" rx="0" ry="0"/></g><path id="path7861" d="m 5,1058.3622 v 5 h 5 v -5 z" style="fill:#bebebe;fill-opacity:1;fill-rule:evenodd;stroke:none;stroke-width:1px;stroke-linecap:butt;stroke-linejoin:miter;stroke-opacity:1"/></g></g><g id="g10033" transform="matrix(2.216479,0,0,2.2164966,421.01537,-1985.7355)"><rect id="rect10031" width="16" height="16" x="0" y="1036.362" style="opacity:1;fill:none;fill-opacity:1;stroke:none;stroke-width:.99999994;stroke-linejoin:miter;stroke-miterlimit:4.0999999;stroke-dasharray:none;stroke-dashoffset:.89999974;stroke-opacity:1"/><g id="g7888" transform="translate(0,-18)"><g id="g7909"><path id="rect7788-4" d="m 121,1 v 13 1 h 1 13 V 14 H 122 V 1 Z" transform="translate(-120,1054.3622)" style="display:inline;opacity:1;fill:#bebebe;fill-opacity:1;stroke:none;stroke-width:1;stroke-linejoin:miter;stroke-miterlimit:4;stroke-dasharray:none;stroke-dashoffset:.89999974;stroke-opacity:1"/><path style="fill:#bebebe;fill-opacity:1;fill-rule:evenodd;stroke:none;stroke-width:1px;stroke-linecap:butt;stroke-linejoin:miter;stroke-opacity:1" id="path7877" d="m 1,1064.3622 2.4e-5,5 H 6 l -2.4e-5,-5 z"/></g></g></g><g style="display:inline" id="g10109" transform="matrix(1.000013,0,0,1.0000209,50.116236,-0.00719736)"><rect id="rect3436-2" width="31.03" height="31.03" x="157.254" y="313.575" ry=".429" transform="matrix(0.9983547,0,0,0.99816217,38.799839,0.62684985)" style="display:inline;opacity:1;fill:none;fill-opacity:1;stroke:none;stroke-width:.969697;stroke-linejoin:miter;stroke-miterlimit:4;stroke-dasharray:none;stroke-opacity:1"/><rect style="display:inline;opacity:1;fill:none;fill-opacity:1;stroke:none;stroke-width:.969697;stroke-linejoin:miter;stroke-miterlimit:4;stroke-dasharray:none;stroke-opacity:1" id="rect4429" width="31.03" height="31.03" x="195.795" y="313.575" ry=".429" transform="translate(-3.8809242e-7,-6.6363551e-6)"/><rect id="rect4400-1" width="11.082" height="11.082" x="204.661" y="324.657" ry="0" transform="translate(-3.8809242e-7,-6.6363551e-6)" style="display:inline;opacity:1;fill:#bebebe;fill-opacity:1;stroke:none;stroke-width:.10701809;stroke-miterlimit:4;stroke-dasharray:none;stroke-opacity:1"/><g id="g4658" transform="matrix(0.70275051,0.71143642,-0.71143634,0.70275051,297.39677,-51.392458)"><path id="path4581" d="M 7.5039062,-1 7.5,4 10.896484,1.5 7.5039062,-1 Z M 7.5,1 A 7.4999999,7.5000009 0 0 0 0,8.5 l 1,0 A 6.4999958,6.4999962 0 0 1 7.5,2 l 0,-1 z" transform="matrix(2.2164502,0,0,2.2164504,193.57829,311.35841)" style="opacity:1;fill:#bebebe;fill-opacity:1;stroke:none;stroke-width:.2;stroke-linejoin:miter;stroke-miterlimit:4;stroke-dasharray:none;stroke-dashoffset:.89999974;stroke-opacity:1"/><path style="opacity:1;fill:#bebebe;fill-opacity:1;stroke:none;stroke-width:.2;stroke-linejoin:miter;stroke-miterlimit:4;stroke-dasharray:none;stroke-dashoffset:.89999974;stroke-opacity:1" id="path4643" d="m 210.18868,351.25452 0.009,-11.08226 -7.52814,5.54113 7.51948,5.54113 z m 0.009,-4.4329 a 16.623376,16.62338 0 0 0 16.62337,-16.62338 l -2.21645,0 a 14.406917,14.406919 0 0 1 -14.40692,14.40693 l 0,2.21645 z"/></g><rect id="rect10104" width="35.463" height="35.463" x="193.578" y="311.358" style="opacity:1;fill:none;fill-opacity:1;stroke:none;stroke-width:.99999994;stroke-linejoin:miter;stroke-miterlimit:4.0999999;stroke-dasharray:none;stroke-dashoffset:.89999974;stroke-opacity:1"/></g><g style="display:inline" id="g10162" transform="matrix(1.0389745,0,0,1.0389828,1.7673213,-11.217181)"><rect style="opacity:1;fill:none;fill-opacity:1;stroke:none;stroke-width:.969697;stroke-linejoin:miter;stroke-miterlimit:4;stroke-dasharray:none;stroke-opacity:1" id="rect5025" width="32" height="32" x="275.521" y="312.605" ry=".442"/><rect id="rect5036" width="10.667" height="10.667" x="275.521" y="333.938" ry="0" style="opacity:1;fill:#bebebe;fill-opacity:1;stroke:none;stroke-width:.1103624;stroke-miterlimit:4;stroke-dasharray:none;stroke-opacity:1"/><rect id="rect5038" width="29.867" height="29.867" x="276.588" y="313.672" ry=".435" style="opacity:1;fill:none;fill-opacity:1;stroke:#bebebe;stroke-width:2.13333344;stroke-linejoin:miter;stroke-miterlimit:4;stroke-dasharray:4.26666666,4.26666666;stroke-dashoffset:1.91999948;stroke-opacity:1"/><path id="path8349" d="m 288.84901,331.27719 11.02393,-11.02434" style="fill:none;fill-opacity:1;fill-rule:evenodd;stroke:#bebebe;stroke-width:1.49333334;stroke-linecap:butt;stroke-linejoin:miter;stroke-miterlimit:4;stroke-dasharray:none;stroke-opacity:1;marker-end:url(#Arrow2Mend)"/><rect id="rect10160" width="34.133" height="34.133" x="275.521" y="310.472" style="opacity:1;fill:none;fill-opacity:1;stroke:none;stroke-width:.99999994;stroke-linejoin:miter;stroke-miterlimit:4.0999999;stroke-dasharray:none;stroke-dashoffset:.89999974;stroke-opacity:1"/></g><g id="g10207" transform="matrix(2.216479,0,0,2.2164966,598.33368,-1985.7355)"><path id="path5439" d="m 1.0000022,1037.3622 0,14 13.9999998,0 0,-14 z" style="fill:#bebebe;fill-opacity:1;fill-rule:evenodd;stroke:none;stroke-width:1px;stroke-linecap:butt;stroke-linejoin:miter;stroke-opacity:1"/><rect id="rect10205" width="16" height="16" x="0" y="1036.362" style="opacity:1;fill:none;fill-opacity:1;stroke:none;stroke-width:.99999994;stroke-linejoin:miter;stroke-miterlimit:4.0999999;stroke-dasharray:none;stroke-dashoffset:.89999974;stroke-opacity:1"/></g><g id="g10234" transform="matrix(2.216479,0,0,2.2164966,554.0041,-1985.7355)"><path id="path5418" d="m 1,1037.3622 0,14 14,-7 z" style="fill:#bebebe;fill-opacity:1;fill-rule:evenodd;stroke:none;stroke-width:1px;stroke-linecap:butt;stroke-linejoin:miter;stroke-opacity:1"/><rect id="rect10232" width="16" height="16" x="0" y="1036.362" style="opacity:1;fill:none;fill-opacity:1;stroke:none;stroke-width:.99999994;stroke-linejoin:miter;stroke-miterlimit:4.0999999;stroke-dasharray:none;stroke-dashoffset:.89999974;stroke-opacity:1"/></g><g id="g4435"><rect id="rect4378" width="35.464" height="35.464" x="686.993" y="311.358" style="opacity:1;fill:none;fill-opacity:1;stroke:none;stroke-width:.22164875;stroke-linejoin:miter;stroke-miterlimit:4.0999999;stroke-dasharray:none;stroke-dashoffset:.89999974;stroke-opacity:1"/><g id="g4380" transform="translate(13.298899,5.5412161)"><path style="opacity:1;fill:#bebebe;fill-opacity:1;stroke:none;stroke-width:.04511642;stroke-linejoin:miter;stroke-miterlimit:4.0999999;stroke-dasharray:none;stroke-dashoffset:.89999974;stroke-opacity:1" id="rect4348" d="M 244 1 L 244 4 L 245 4 L 245 7 L 245 8 L 245 12 L 245 13 L 249 13 L 249 14 L 252 14 L 252 11 L 249 11 L 249 12 L 246 12 L 246 8 L 249 8 L 249 9 L 252 9 L 252 6 L 249 6 L 249 7 L 246 7 L 246 4 L 247 4 L 247 1 L 244 1 z" transform="matrix(2.216479,0,0,2.2164966,141.73899,305.81649)"/></g></g><g id="g4445" style="opacity:1"><rect id="rect4397" width="35.464" height="35.464" x="642.663" y="311.358" style="opacity:1;fill:none;fill-opacity:1;stroke:none;stroke-width:.1;stroke-linejoin:miter;stroke-miterlimit:4.0999999;stroke-dasharray:none;stroke-dashoffset:.89999974;stroke-opacity:1"/><g id="g4430" transform="translate(-7.6375662e-7,2.2164735)"><path id="rect4390" d="m 648.75859,324.65669 -3.87884,2.21649 15.51535,8.86599 15.51535,-8.86599 -3.87883,-2.21649 -11.63652,6.64949 -11.63651,-6.64949 z" style="opacity:1;fill:#bebebe;fill-opacity:1;stroke:none;stroke-width:.25820315;stroke-linejoin:miter;stroke-miterlimit:4.0999999;stroke-dasharray:none;stroke-dashoffset:.89999974;stroke-opacity:1"/><rect id="rect4353-7" width="17.87" height="17.87" x="694.085" y="-66.527" transform="matrix(0.86824146,0.49614188,-0.86824146,0.49614188,0,0)" style="display:inline;opacity:1;fill:#bebebe;fill-opacity:1;stroke:none;stroke-width:.25820315;stroke-linejoin:miter;stroke-miterlimit:4.0999999;stroke-dasharray:none;stroke-dashoffset:.89999974;stroke-opacity:1"/><path style="opacity:1;fill:#bebebe;fill-opacity:1;stroke:none;stroke-width:.25820315;stroke-linejoin:miter;stroke-miterlimit:4.0999999;stroke-dasharray:none;stroke-dashoffset:.89999974;stroke-opacity:1" id="path4419" d="m 648.75859,331.30618 -3.87884,2.21649 15.51535,8.86599 15.51535,-8.86599 -3.87883,-2.21649 -11.63652,6.64949 -11.63651,-6.64949 z"/></g></g><g id="g4740" transform="translate(0,1.4759957)"><g id="g4736"><path style="opacity:1;fill:#bebebe;fill-opacity:1;stroke:none;stroke-width:.1;stroke-linejoin:miter;stroke-miterlimit:4.0999999;stroke-dasharray:none;stroke-dashoffset:.89999974;stroke-opacity:1" id="path4620" d="m 749.05424,317.27005 a 15.51533,10.34367 0 0 0 -15.51535,10.34365 15.51533,10.34367 0 0 0 15.51535,10.34365 15.51533,10.34367 0 0 0 15.51536,-10.34365 15.51533,10.34367 0 0 0 -15.51536,-10.34365 z m 0,1.72731 a 14.22239,8.6197258 0 0 1 14.22241,8.61634 14.22239,8.6197258 0 0 1 -14.22241,8.62139 14.22239,8.6197258 0 0 1 -14.2224,-8.62139 14.22239,8.6197258 0 0 1 14.2224,-8.61634 z"/><path style="opacity:1;fill:#bebebe;fill-opacity:1;stroke:none;stroke-width:.1;stroke-linejoin:miter;stroke-miterlimit:4.0999999;stroke-dasharray:none;stroke-dashoffset:.89999974;stroke-opacity:1" id="path4625" d="m 749.05427,320.50244 a 7.1112019,7.1112598 0 0 0 -7.11123,7.11123 7.1112019,7.1112598 0 0 0 7.11123,7.11129 7.1112019,7.1112598 0 0 0 7.11119,-7.11129 7.1112019,7.1112598 0 0 0 -7.11119,-7.11123 z m 0,3.55564 a 3.5556017,3.5556304 0 0 1 3.5556,3.55559 3.5556017,3.5556304 0 0 1 -3.5556,3.55564 3.5556017,3.5556304 0 0 1 -3.55562,-3.55564 3.5556017,3.5556304 0 0 1 3.55562,-3.55559 z"/></g><rect id="rect4677" width="35.464" height="35.464" x="731.322" y="309.882" style="opacity:1;fill:none;fill-opacity:1;stroke:none;stroke-width:.1;stroke-linejoin:miter;stroke-miterlimit:4.0999999;stroke-dasharray:none;stroke-dashoffset:.89999974;stroke-opacity:1"/></g><g id="g4813" transform="translate(2.2164578,1.3064865e-5)"><rect id="rect4781" width="35.464" height="35.464" x="773.436" y="311.358" style="opacity:1;fill:none;fill-opacity:1;stroke:none;stroke-width:.1;stroke-linejoin:miter;stroke-miterlimit:4.0999999;stroke-dasharray:none;stroke-dashoffset:.89999974;stroke-opacity:1"/><g id="g4809" transform="translate(-2.2164556,2.7705585)"><g id="g7965"><path id="rect4755" d="m 784.51792,326.31911 0,13.29898 17.73183,0 0,-13.29898 z m 8.86592,2.21649 c 1.39901,-10e-6 2.53313,1.15775 2.53313,2.58591 -7.2e-4,0.92312 -0.48343,1.77585 -1.26656,2.23741 l 0,4.04268 -2.53315,0 0,-4.04772 c -0.7816,-0.46066 -1.26407,-1.31105 -1.26654,-2.23237 0,-1.42816 1.13412,-2.58591 2.53312,-2.58591 z" style="opacity:1;fill:#bebebe;fill-opacity:1;stroke:none;stroke-width:.1;stroke-linejoin:miter;stroke-miterlimit:4.0999999;stroke-dasharray:none;stroke-dashoffset:.89999974;stroke-opacity:1"/><path id="path7958" d="m 793.38383,313.73876 c -3.32472,0 -6.64943,0.95374 -6.64943,2.85721 v 9.72314 h 2.21648 v -7.66682 c 0,-3.00193 8.86591,-3.00193 8.86591,0 v 7.66682 h 2.21648 v -9.72314 c 0,-1.90347 -3.32472,-2.85721 -6.64944,-2.85721 z" style="fill:#bebebe;fill-opacity:1;fill-rule:evenodd;stroke:none;stroke-width:2.21648812px;stroke-linecap:butt;stroke-linejoin:miter;stroke-opacity:1"/></g></g></g><g id="g7900" transform="matrix(2.216479,0,0,2.2164966,465.34497,-1985.7355)"><rect style="opacity:1;fill:none;fill-opacity:1;stroke:none;stroke-width:.99999994;stroke-linejoin:miter;stroke-miterlimit:4.0999999;stroke-dasharray:none;stroke-dashoffset:.89999974;stroke-opacity:1" id="rect7890" width="16" height="16" x="0" y="1036.362"/><g id="g7920"><g id="g10075" transform="translate(-1.1291071e-5,-4.8854565e-5)" style="display:inline"><path style="fill:#bebebe;fill-opacity:1;fill-rule:evenodd;stroke:none;stroke-width:1px;stroke-linecap:butt;stroke-linejoin:miter;stroke-opacity:1" id="path6081-7" d="m 6,1041.3622 2.4e-5,5 H 11 l -2.4e-5,-5 z"/><rect style="opacity:1;fill:none;fill-opacity:1;stroke:none;stroke-width:.99999994;stroke-linejoin:miter;stroke-miterlimit:4.0999999;stroke-dasharray:none;stroke-dashoffset:.89999974;stroke-opacity:1" id="rect10062" width="16" height="16" x="0" y="1036.362"/></g><g id="g7898" transform="translate(0,-18)"><g id="g7903"><path id="rect7892" d="m 141,1 v 13 1 h 1 13 V 14 H 142 V 1 Z" transform="translate(-140.00001,1054.3622)" style="display:inline;opacity:1;fill:#bebebe;fill-opacity:1;stroke:none;stroke-width:1;stroke-linejoin:miter;stroke-miterlimit:4;stroke-dasharray:none;stroke-dashoffset:.89999974;stroke-opacity:1"/></g></g></g></g></g></g></g></svg>